<?xml version="1.0" encoding="UTF-8" standalone="no"?>
<svg
   xmlns:dc="http://purl.org/dc/elements/1.1/"
   xmlns:cc="http://creativecommons.org/ns#"
   xmlns:rdf="http://www.w3.org/1999/02/22-rdf-syntax-ns#"
   xmlns:svg="http://www.w3.org/2000/svg"
   xmlns="http://www.w3.org/2000/svg"
   viewBox="0 0 755.90668 529.1333"
   height="529.1333"
   width="755.90668"
   xml:space="preserve"
   id="svg2"
   version="1.1"><metadata
     id="metadata8"><rdf:RDF><cc:Work
         rdf:about=""><dc:format>image/svg+xml</dc:format><dc:type
           rdf:resource="http://purl.org/dc/dcmitype/StillImage" /></cc:Work></rdf:RDF></metadata><defs
     id="defs6"><clipPath
       id="clipPath24"
       clipPathUnits="userSpaceOnUse"><path
         id="path22"
         d="M 0,396.85 H 566.93 V 0 H 0 Z" /></clipPath></defs><g
     transform="matrix(1.3333333,0,0,-1.3333333,0,529.13333)"
     id="g10"><path
       id="path12"
       style="fill:#e11a22;fill-opacity:1;fill-rule:evenodd;stroke:none"
       d="M 106.984,283.268 H 236.683 V 257.33 H 106.984 Z" /><path
       id="path14"
       style="fill:#e11a22;fill-opacity:1;fill-rule:evenodd;stroke:none"
       d="M 106.984,231.392 H 236.683 V 205.449 H 106.984 Z" /><path
       id="path16"
       style="fill:#e11a22;fill-opacity:1;fill-rule:evenodd;stroke:none"
       d="m 434.678,231.392 h 25.938 v -77.819 h -25.938 z" /><g
       id="g18"><g
         clip-path="url(#clipPath24)"
         id="g20"><g
           transform="translate(460.6152,257.3301)"
           id="g26"><path
             id="path28"
             style="fill:#e11a22;fill-opacity:1;fill-rule:evenodd;stroke:none"
             d="m 0,0 h -150.438 c 0,0 -12.973,-0.863 -12.973,-13.837 0,-12.969 12.973,-12.101 12.973,-12.101 h 51.876 c 0,0 38.903,0 38.903,-38.907 0,-38.912 -38.903,-38.912 -38.903,-38.912 h -255.069 v 25.939 h 255.069 c 0,0 12.964,0 12.964,12.973 0,12.964 -12.964,12.964 -12.964,12.964 h -51.876 c 0,0 -38.914,0 -38.914,38.044 0,38.043 38.914,39.775 38.914,39.775 L 0,25.938 Z" /></g><g
           transform="translate(106.9839,113.7842)"
           id="g30"><path
             id="path32"
             style="fill:#16479e;fill-opacity:1;fill-rule:evenodd;stroke:none"
             d="M 0,0 H 16.672 V 3.51 H 4.388 v 9.653 h 11.407 v 3.51 H 4.388 v 8.779 h 12.284 v 3.51 L 0,28.962 Z m 30.722,7.487 c 0,-1.141 -0.415,-2.08 -1.208,-2.836 -0.793,-0.773 -1.802,-1.141 -3,-1.141 -2.737,0 -5.133,1.538 -7.2,4.609 V 2.85 C 21.579,0.948 24.117,0 26.929,0 c 2.425,0 4.397,0.708 5.906,2.142 1.51,1.42 2.274,3.274 2.274,5.557 0,3.195 -1.632,5.784 -4.897,7.784 l -2.925,1.775 c -1.311,0.778 -2.245,1.556 -2.783,2.325 -0.538,0.77 -0.812,1.595 -0.812,2.473 0,0.981 0.406,1.806 1.208,2.438 0.802,0.633 1.83,0.958 3.095,0.958 2.217,0 4.293,-1.245 6.227,-3.731 v 4.387 c -1.991,1.897 -4.17,2.854 -6.519,2.854 -2.492,0 -4.511,-0.703 -6.049,-2.1 -1.566,-1.391 -2.34,-3.207 -2.34,-5.429 0,-1.487 0.378,-2.798 1.142,-3.93 0.783,-1.151 2.066,-2.27 3.878,-3.363 l 2.897,-1.733 c 2.321,-1.438 3.491,-3.08 3.491,-4.92 M 40.374,0 H 57.046 V 3.51 H 44.762 v 9.653 h 11.416 v 3.51 H 44.762 v 8.779 h 12.284 v 3.51 H 40.374 Z m 42.129,7.388 -17.21,21.574 h -3.85 V 0 h 4.388 V 21.353 L 82.871,0 h 4.02 v 28.962 h -4.388 z" /></g><g
           transform="translate(213.3584,112.9072)"
           id="g34"><path
             id="path36"
             style="fill:#414142;fill-opacity:1;fill-rule:evenodd;stroke:none"
             d="m 0,0 c 1.755,0 3.199,0.604 4.313,1.797 1.094,1.203 1.65,2.765 1.65,4.704 0,0.985 -0.198,2.127 -0.604,3.415 -0.396,1.293 -1.255,3.151 -2.604,5.609 -1.349,2.449 -2.16,4.143 -2.462,5.072 -0.321,0.934 -0.462,1.727 -0.462,2.387 0,1.642 0.896,2.468 2.745,2.468 0.689,0 1.528,-0.298 2.519,-0.878 v 3.605 c -1.075,0.518 -2.085,0.783 -3.029,0.783 -1.679,0 -3.066,-0.605 -4.142,-1.808 -1.075,-1.212 -1.613,-2.759 -1.613,-4.651 0,-0.982 0.198,-2.118 0.604,-3.387 0.396,-1.293 1.264,-3.171 2.613,-5.652 1.35,-2.477 2.161,-4.18 2.463,-5.1 C 2.293,7.444 2.463,6.661 2.463,6.02 2.463,5.316 2.17,4.727 1.623,4.236 1.057,3.745 0.387,3.51 -0.405,3.51 c -1.057,0 -2.161,0.58 -3.284,1.755 V 1.193 C -2.51,0.396 -1.273,0 0,0 M 12.993,28.962 H 9.483 V 0.877 h 3.51 z M 20.192,0 c 1.746,0 3.189,0.604 4.312,1.797 1.095,1.203 1.651,2.765 1.651,4.704 0,0.985 -0.198,2.127 -0.604,3.415 -0.396,1.293 -1.255,3.151 -2.613,5.609 -1.331,2.449 -2.161,4.143 -2.463,5.072 -0.311,0.934 -0.462,1.727 -0.462,2.387 0,1.642 0.905,2.468 2.745,2.468 0.68,0 1.538,-0.298 2.511,-0.878 v 3.605 c -1.058,0.518 -2.077,0.783 -3.011,0.783 -1.679,0 -3.066,-0.605 -4.142,-1.808 -1.075,-1.212 -1.613,-2.759 -1.613,-4.651 0,-0.982 0.179,-2.118 0.603,-3.387 0.397,-1.293 1.274,-3.171 2.605,-5.652 1.349,-2.477 2.17,-4.18 2.472,-5.1 0.293,-0.92 0.453,-1.703 0.453,-2.344 0,-0.704 -0.283,-1.293 -0.821,-1.784 C 21.249,3.745 20.579,3.51 19.796,3.51 18.72,3.51 17.625,4.09 16.503,5.265 V 1.193 C 17.673,0.396 18.918,0 20.192,0 M 34.93,0.877 v 24.575 h 4.397 v 3.51 H 27.033 v -3.51 H 31.42 V 0.877 Z m 18.437,0 v 3.51 h -7.02 v 9.653 h 6.114 v 3.51 h -6.114 v 7.902 h 6.661 v 3.51 H 42.828 V 0.877 Z M 60.84,28.962 H 57.745 V 0.877 h 3.519 l -0.226,20.31 3.425,-9.162 h 0.623 l 3.321,9.242 -0.123,-20.39 h 3.513 V 28.962 H 68.709 L 64.774,18.648 Z M 9.992,32.113 c 0.359,-0.344 0.774,-0.519 1.255,-0.519 0.482,0 0.887,0.175 1.227,0.519 0.33,0.349 0.519,0.764 0.519,1.245 0,0.487 -0.189,0.887 -0.519,1.232 -0.34,0.34 -0.745,0.514 -1.227,0.514 -0.481,0 -0.896,-0.174 -1.255,-0.514 -0.348,-0.345 -0.509,-0.745 -0.509,-1.232 0,-0.481 0.161,-0.896 0.509,-1.245 M 94.621,0.877 v 3.51 h -7.02 v 9.653 h 6.114 v 3.51 h -6.114 v 7.902 h 6.652 v 3.51 H 84.081 V 0.877 Z m 7.906,0 V 18.38 l 0.057,-0.75 5.614,-16.753 h 3.095 v 28.085 h -3.51 V 11.629 l -0.066,0.797 -5.623,16.536 H 99.009 V 0.877 Z m 19.296,0 v 24.575 h 4.397 v 3.51 h -12.294 v -3.51 h 4.387 V 0.877 Z m 18.437,0 v 3.51 h -7.02 v 9.653 h 6.114 v 3.51 h -6.114 v 7.902 h 6.661 v 3.51 h -10.18 V 0.877 Z m 11.53,14.922 v -3.515 h 2.51 V 3.661 c -0.547,-0.109 -0.982,-0.151 -1.274,-0.151 -3.84,0 -5.746,3.604 -5.746,10.832 0,7.406 1.774,11.11 5.34,11.11 1.463,0 3.19,-0.878 5.19,-2.633 v 4.029 c -1.944,1.401 -3.727,2.114 -5.322,2.114 -2.651,0 -4.774,-1.298 -6.359,-3.901 -1.585,-2.61 -2.359,-6.148 -2.359,-10.625 0,-4.539 0.801,-8.077 2.444,-10.629 C 147.855,1.264 150.082,0 152.903,0 c 1.595,0 3.227,0.58 4.907,1.698 v 14.101 z m 13.917,9.653 c 2.34,-0.019 3.51,-1.519 3.51,-4.529 0,-2.836 -1.113,-4.246 -3.33,-4.246 z m 0,-24.575 v 12.285 c 0.906,0.095 1.736,-0.297 2.501,-1.198 0.764,-0.915 1.565,-3.02 2.396,-6.341 l 1.151,-4.746 h 3.604 l -1.386,5.685 c -1.123,4.548 -2.492,7.34 -4.095,8.402 1.896,1.349 2.858,3.388 2.858,6.096 0,2.391 -0.641,4.293 -1.924,5.736 -1.293,1.434 -3.142,2.166 -5.567,2.166 h -3.048 V 0.877 Z m 17.05,21.791 2.246,-12.139 h -4.35 z M 178.879,0.877 180.03,7.02 h 5.67 l 1.076,-6.143 h 3.51 l -5.491,28.085 h -3.897 L 175.359,0.877 Z M 194.844,0 c 1.764,0 3.198,0.604 4.311,1.797 1.095,1.203 1.661,2.765 1.661,4.704 0,0.985 -0.208,2.127 -0.604,3.415 -0.396,1.293 -1.264,3.151 -2.613,5.609 -1.34,2.449 -2.152,4.143 -2.463,5.072 -0.311,0.934 -0.462,1.727 -0.462,2.387 0,1.642 0.896,2.468 2.746,2.468 0.688,0 1.528,-0.298 2.51,-0.878 v 3.605 c -1.067,0.518 -2.067,0.783 -3.02,0.783 -1.68,0 -3.057,-0.605 -4.142,-1.808 -1.076,-1.212 -1.614,-2.759 -1.614,-4.651 0,-0.982 0.208,-2.118 0.614,-3.387 0.396,-1.293 1.264,-3.171 2.604,-5.652 1.349,-2.477 2.16,-4.18 2.472,-5.1 0.293,-0.92 0.463,-1.703 0.463,-2.344 0,-0.704 -0.293,-1.293 -0.831,-1.784 -0.566,-0.491 -1.246,-0.726 -2.019,-0.726 -1.076,0 -2.18,0.58 -3.303,1.755 V 1.193 C 192.334,0.396 193.569,0 194.844,0 m 14.747,0.877 v 12.837 l 4.397,15.248 h -3.519 l -2.652,-11.649 -2.613,11.649 h -3.519 l 4.396,-15.248 V 0.877 Z m 16.597,21.721 c 0.641,-1.907 0.953,-4.61 0.953,-8.119 0,-3.455 -0.312,-6.158 -0.925,-8.073 -0.632,-1.943 -1.49,-2.896 -2.557,-2.896 -1.123,0 -1.99,0.928 -2.613,2.826 -0.623,1.896 -0.915,4.608 -0.915,8.143 0,3.415 0.282,6.099 0.877,8.052 0.604,1.945 1.453,2.921 2.576,2.921 1.123,0 1.981,-0.958 2.604,-2.854 M 228.642,3.84 c 1.33,2.548 2.018,6.104 2.018,10.639 0,4.25 -0.641,7.732 -1.915,10.435 -1.265,2.689 -2.991,4.048 -5.123,4.048 -2.208,0 -3.916,-1.359 -5.152,-4.053 -1.245,-2.703 -1.859,-6.18 -1.859,-10.43 0,-4.492 0.651,-8.035 1.953,-10.611 1.292,-2.58 2.992,-3.868 5.058,-3.868 2,0 3.67,1.273 5.02,3.84 m 9.916,-2.963 V 18.38 l 0.076,-0.75 5.604,-16.753 h 3.095 v 28.085 h -3.52 V 11.629 l -0.056,0.797 -5.614,16.536 h -3.105 V 0.877 Z" /></g></g></g></g></svg>