<?xml version="1.0" encoding="UTF-8" standalone="no"?>
<svg
   xmlns:dc="http://purl.org/dc/elements/1.1/"
   xmlns:cc="http://creativecommons.org/ns#"
   xmlns:rdf="http://www.w3.org/1999/02/22-rdf-syntax-ns#"
   xmlns:svg="http://www.w3.org/2000/svg"
   xmlns="http://www.w3.org/2000/svg"
   viewBox="0 0 1600 837.33331"
   height="837.33331"
   width="1600"
   xml:space="preserve"
   id="svg2"
   version="1.1"><metadata
     id="metadata8"><rdf:RDF><cc:Work
         rdf:about=""><dc:format>image/svg+xml</dc:format><dc:type
           rdf:resource="http://purl.org/dc/dcmitype/StillImage" /></cc:Work></rdf:RDF></metadata><defs
     id="defs6"><clipPath
       id="clipPath22"
       clipPathUnits="userSpaceOnUse"><path
         id="path20"
         d="M 0,628 H 1200 V 0 H 0 Z" /></clipPath><clipPath
       id="clipPath62"
       clipPathUnits="userSpaceOnUse"><path
         id="path60"
         d="M 197,323.326 C 197,272.324 238.324,231 289.296,231 v 0 c 50.972,0 92.311,41.339 92.311,92.326 v 0 c 0,50.957 -41.339,92.297 -92.311,92.297 v 0 C 238.324,415.623 197,374.283 197,323.326" /></clipPath><clipPath
       id="clipPath70"
       clipPathUnits="userSpaceOnUse"><path
         id="path68"
         d="M 248.904,406.856 H 376.088 V 264.943 H 248.904 Z" /></clipPath><clipPath
       id="clipPath74"
       clipPathUnits="userSpaceOnUse"><path
         id="path72"
         d="M 248.909,264.948 H 376.085 V 406.856 H 248.909 Z" /></clipPath><clipPath
       id="clipPath102"
       clipPathUnits="userSpaceOnUse"><path
         id="path100"
         d="m 250.974,298.474 5.062,-0.193 6.183,-1.718 3.988,-3.061 40.936,71.581 -16.025,8.035 -17.757,6.109 -17.205,2.433 z" /></clipPath><linearGradient
       id="linearGradient112"
       spreadMethod="pad"
       gradientTransform="matrix(52.225765,-6.1739049,6.1739049,52.225765,251.32957,340.8591)"
       gradientUnits="userSpaceOnUse"
       y2="0"
       x2="1"
       y1="0"
       x1="0"><stop
         id="stop108"
         offset="0"
         style="stop-opacity:1;stop-color:#f1ceba" /><stop
         id="stop110"
         offset="1"
         style="stop-opacity:1;stop-color:#b8846f" /></linearGradient><clipPath
       id="clipPath122"
       clipPathUnits="userSpaceOnUse"><path
         id="path120"
         d="M 197,323.326 C 197,272.324 238.324,231 289.296,231 v 0 c 50.972,0 92.311,41.339 92.311,92.326 v 0 c 0,50.957 -41.339,92.297 -92.311,92.297 v 0 C 238.324,415.623 197,374.283 197,323.326" /></clipPath><clipPath
       id="clipPath134"
       clipPathUnits="userSpaceOnUse"><path
         id="path132"
         d="m 248.907,414.523 h 71.014 V 264.948 h -71.014 z" /></clipPath><clipPath
       id="clipPath138"
       clipPathUnits="userSpaceOnUse"><path
         id="path136"
         d="M 248.909,264.948 H 319.92 V 414.517 H 248.909 Z" /></clipPath><clipPath
       id="clipPath158"
       clipPathUnits="userSpaceOnUse"><path
         id="path156"
         d="m 248.908,381.656 h 24.463 V 265.382 h -24.463 z" /></clipPath><clipPath
       id="clipPath162"
       clipPathUnits="userSpaceOnUse"><path
         id="path160"
         d="m 248.909,265.382 h 24.458 v 116.274 h -24.458 z" /></clipPath></defs><g
     transform="matrix(1.3333333,0,0,-1.3333333,0,837.33333)"
     id="g10"><g
       transform="translate(727.3291,366.2529)"
       id="g12"><path
         id="path14"
         style="fill:#f38631;fill-opacity:1;fill-rule:nonzero;stroke:none"
         d="m 0,0 h -49.733 l -7.109,-33.992 h 45.805 l -5.003,-23.253 h -45.79 l -11.051,-53.69 H -99.749 L -71.044,25.06 H 5.271 Z" /></g><g
       id="g16"><g
         clip-path="url(#clipPath22)"
         id="g18"><g
           transform="translate(783.1294,308.542)"
           id="g24"><path
             id="path26"
             style="fill:#f38631;fill-opacity:1;fill-rule:nonzero;stroke:none"
             d="m 0,0 c -4.211,-20.012 -11.843,-30.003 -25.523,-29.496 -14.203,0.553 -13.412,17.115 -10.261,31.602 4.212,19.46 11.56,29.735 25.27,29.197 C 4.48,30.795 2.882,13.949 0,0 m -9.483,56.05 c -33.678,0 -45.507,-26.838 -51.301,-53.675 -5.526,-26.061 -1.583,-56.573 34.723,-56.573 33.707,0 45.282,26.554 51.077,53.929 5.51,25.777 1.821,56.319 -34.499,56.319" /></g><g
           transform="translate(873.686,339.0674)"
           id="g28"><path
             id="path30"
             style="fill:#f38631;fill-opacity:1;fill-rule:nonzero;stroke:none"
             d="M 0,0 C -20.79,-1.314 -25.792,-16.354 -28.152,-27.943 L -39.995,-83.739 H -66.042 L -43.4,23.611 h 12.605 l 1.329,-14.157 c 6.825,9.991 16.323,16.98 35.26,16.98 z" /></g><g
           transform="translate(987.1699,255.3223)"
           id="g32"><path
             id="path34"
             style="fill:#f38631;fill-opacity:1;fill-rule:nonzero;stroke:none"
             d="m 0,0 h -26.061 l 14.203,67.146 c 1.314,6.572 3.958,17.773 -6.034,17.773 -8.976,0 -12.918,-8.125 -15.532,-20.505 L -47.104,0 h -26.33 l 14.203,67.146 c 1.598,6.826 3.973,17.773 -5.78,17.773 -9.214,0 -13.142,-8.125 -15.771,-20.505 L -94.477,0 h -26.061 l 22.641,107.351 h 12.889 l 1.06,-13.905 c 6.825,10.53 17.877,15.936 28.167,15.936 9.454,0 18.131,-4.929 20.505,-14.651 7.378,10.529 16.578,14.755 27.122,14.755 23.403,0 27.091,-20.535 21.565,-46.85 z" /></g><g
           transform="translate(459.8027,294.3945)"
           id="g36"><path
             id="path38"
             style="fill:#f38631;fill-opacity:1;fill-rule:nonzero;stroke:none"
             d="m 0,0 c -5.272,-26.031 -13.158,-41.474 -57.11,-38.308 l 5.018,23.598 c 17.608,-0.255 22.88,3.987 25.254,15.8 l 20.505,95.821 h 26.868 z" /></g><g
           transform="translate(538.1665,308.542)"
           id="g40"><path
             id="path42"
             style="fill:#f38631;fill-opacity:1;fill-rule:nonzero;stroke:none"
             d="m 0,0 c -4.212,-20.012 -11.843,-30.003 -25.539,-29.496 -14.202,0.553 -13.411,17.115 -10.245,31.602 4.197,19.46 11.56,29.735 25.255,29.197 C 4.48,30.795 2.882,13.949 0,0 m -9.484,56.05 c -33.692,0 -45.52,-26.838 -51.315,-53.675 -5.511,-26.061 -1.598,-56.573 34.738,-56.573 33.678,0 45.252,26.554 51.061,53.929 5.526,25.777 1.837,56.319 -34.484,56.319" /></g><g
           transform="translate(631.6245,339.418)"
           id="g44"><path
             id="path46"
             style="fill:#f38631;fill-opacity:1;fill-rule:nonzero;stroke:none"
             d="m 0,0 h -20.789 l -10.514,-49.12 c -2.375,-10.529 0,-11.933 18.131,-12.187 l -4.974,-23.343 c -36.858,-1.568 -45.013,10.5 -39.203,37.845 L -47.358,0 h -12.097 l 2.882,15.084 14.233,9.065 5.765,27.749 h 26.061 L -16.309,25.061 H 5.018 Z" /></g><g
           transform="translate(381.6001,323.3154)"
           id="g48"><path
             id="path50"
             style="fill:#ffffff;fill-opacity:1;fill-rule:nonzero;stroke:none"
             d="m 0,0 c 0,-50.972 -41.339,-92.311 -92.312,-92.311 -50.971,0 -92.281,41.324 -92.281,92.311 0,50.972 41.31,92.312 92.281,92.312 C -41.339,92.312 0,50.972 0,0" /></g><g
           transform="translate(381.6001,323.3154)"
           id="g52"><path
             id="path54"
             style="fill:#ededed;fill-opacity:1;fill-rule:nonzero;stroke:none"
             d="m 0,0 c 0,-50.972 -41.339,-92.311 -92.312,-92.311 -50.971,0 -92.281,41.324 -92.281,92.311 0,50.972 41.31,92.312 92.281,92.312 C -41.339,92.312 0,50.972 0,0" /></g></g></g><g
       id="g56"><g
         clip-path="url(#clipPath62)"
         id="g58"><g
           id="g64"><g
             id="g66" /><g
             id="g86"><g
               style="opacity:0.05000311"
               id="g84"
               clip-path="url(#clipPath70)"><g
                 id="g82"><g
                   id="g80"
                   clip-path="url(#clipPath74)"><g
                     id="g78"
                     transform="translate(364.8716,308.1045)"><path
                       id="path76"
                       style="fill:#000000;fill-opacity:1;fill-rule:nonzero;stroke:none"
                       d="M 0,0 11.216,46.686 C 2.868,69.685 -14.352,88.414 -36.321,98.748 L -53.167,7.826 -115.968,-43.161 Z" /></g></g></g></g></g></g><g
           transform="translate(289.2935,415.6226)"
           id="g88"><path
             id="path90"
             style="fill:#f38632;fill-opacity:1;fill-rule:nonzero;stroke:none"
             d="m 0,0 c -8.618,0 -16.951,-1.21 -24.866,-3.42 l -8.274,-30.542 17.22,-2.449 17.742,-6.093 16.025,-8.035 12.784,45.297 C 21.043,-1.852 10.753,0 0,0" /></g><g
           transform="translate(266.2056,293.5044)"
           id="g92"><path
             id="path94"
             style="fill:#4e4e4e;fill-opacity:1;fill-rule:nonzero;stroke:none"
             d="m 0,0 -17.294,-28.555 2.046,33.528 5.078,-0.209 6.183,-1.718 z" /></g></g></g><g
       id="g96"><g
         clip-path="url(#clipPath102)"
         id="g98"><g
           id="g104"><g
             id="g106"><path
               id="path114"
               style="fill:url(#linearGradient112);stroke:none"
               d="m 250.974,298.474 5.062,-0.193 6.183,-1.718 3.988,-3.061 40.936,71.581 -16.025,8.035 -17.757,6.109 -17.205,2.433 z" /></g></g></g></g><g
       id="g116"><g
         clip-path="url(#clipPath122)"
         id="g118"><g
           transform="translate(264.4272,412.1948)"
           id="g124"><path
             id="path126"
             style="fill:#f6a259;fill-opacity:1;fill-rule:nonzero;stroke:none"
             d="M 0,0 -8.274,-30.542 8.946,-32.976 19.415,3.256 C 12.724,2.853 6.228,1.748 0,0" /></g><g
           id="g128"><g
             id="g130" /><g
             id="g150"><g
               style="opacity:0.19999701"
               id="g148"
               clip-path="url(#clipPath134)"><g
                 id="g146"><g
                   id="g144"
                   clip-path="url(#clipPath138)"><g
                     id="g142"
                     transform="translate(319.9214,410.3862)"><path
                       id="path140"
                       style="fill:#1a1a1a;fill-opacity:1;fill-rule:nonzero;stroke:none"
                       d="m 0,0 c -5.272,1.852 -10.738,3.271 -16.398,4.137 l -12.411,-41.399 -42.205,-108.172 17.294,28.555 40.951,71.582 z" /></g></g></g></g></g></g><g
           id="g152"><g
             id="g154" /><g
             id="g174"><g
               style="opacity:0.14999402"
               id="g172"
               clip-path="url(#clipPath158)"><g
                 id="g170"><g
                   id="g168"
                   clip-path="url(#clipPath162)"><g
                     id="g166"
                     transform="translate(248.9087,265.3853)"><path
                       id="path164"
                       style="fill:#ffffff;fill-opacity:1;fill-rule:nonzero;stroke:none"
                       d="m 0,0 24.463,113.832 -17.22,2.435 z" /></g></g></g></g></g></g></g></g></g></svg>