<?xml version="1.0" encoding="UTF-8" standalone="no"?>
<svg
   xmlns:dc="http://purl.org/dc/elements/1.1/"
   xmlns:cc="http://creativecommons.org/ns#"
   xmlns:rdf="http://www.w3.org/1999/02/22-rdf-syntax-ns#"
   xmlns:svg="http://www.w3.org/2000/svg"
   xmlns="http://www.w3.org/2000/svg"
   viewBox="0 0 146.90668 60.466667"
   height="60.466667"
   width="146.90668"
   xml:space="preserve"
   id="svg2"
   version="1.1"><metadata
     id="metadata8"><rdf:RDF><cc:Work
         rdf:about=""><dc:format>image/svg+xml</dc:format><dc:type
           rdf:resource="http://purl.org/dc/dcmitype/StillImage" /></cc:Work></rdf:RDF></metadata><defs
     id="defs6"><clipPath
       id="clipPath20"
       clipPathUnits="userSpaceOnUse"><path
         id="path18"
         d="M 453.547,0 H 0 v 453.535 h 453.547 z" /></clipPath><linearGradient
       id="linearGradient28"
       spreadMethod="pad"
       gradientTransform="matrix(-2.09e-5,-478.757,-478.757,2.09e-5,226.772,464.692)"
       gradientUnits="userSpaceOnUse"
       y2="0"
       x2="1"
       y1="0"
       x1="0"><stop
         id="stop22"
         offset="0"
         style="stop-opacity:1;stop-color:#007a50" /><stop
         id="stop24"
         offset="0.6"
         style="stop-opacity:1;stop-color:#7fd2a4" /><stop
         id="stop26"
         offset="1"
         style="stop-opacity:1;stop-color:#00a770" /></linearGradient><clipPath
       id="clipPath38"
       clipPathUnits="userSpaceOnUse"><path
         id="path36"
         d="m 439.531,224.137 c 0,-94.657 4.375,-191.5862 4.375,-191.5862 -0.168,-10.8711 -7.136,-17.8242 -15.91,-17.8242 H 35.4297 c -8.7891,0 -14.8633,7.8242 -15.8984,17.8242 0,0 -11.32817,82.7542 -11.32817,209.2222 0,126.426 11.32817,185.957 11.32817,185.957 1.3593,10.399 7.1093,17.833 15.8984,17.833 H 427.996 c 8.774,0 16.113,-8.145 15.91,-17.833 0,0 -4.375,-108.925 -4.375,-203.593 z" /></clipPath><linearGradient
       id="linearGradient50"
       spreadMethod="pad"
       gradientTransform="matrix(-2.35e-5,-537.99,-537.99,2.35e-5,226.055,566.196)"
       gradientUnits="userSpaceOnUse"
       y2="0"
       x2="1"
       y1="0"
       x1="0"><stop
         id="stop40"
         offset="0"
         style="stop-opacity:1;stop-color:#00a770" /><stop
         id="stop42"
         offset="0.3"
         style="stop-opacity:1;stop-color:#7fd2a4" /><stop
         id="stop44"
         offset="0.55"
         style="stop-opacity:1;stop-color:#00a770" /><stop
         id="stop46"
         offset="0.835165"
         style="stop-opacity:1;stop-color:#007a50" /><stop
         id="stop48"
         offset="1"
         style="stop-opacity:1;stop-color:#19b07b" /></linearGradient><clipPath
       id="clipPath60"
       clipPathUnits="userSpaceOnUse"><path
         id="path58"
         d="m 352.195,331.059 c -28.047,-16.426 -36.609,-17.743 -67.039,-36.016 l 1.485,3.379 c 15.964,17.422 22.922,24.766 33.418,40.156 -28.125,-1.523 -68.887,-4.883 -98.055,-11.308 v 0 0 0 l 1.543,3.125 c 26.453,12.871 75.562,25.656 100.601,28.964 -6.101,8.594 -55.867,35.508 -68.25,40.704 v 0 0 0 l 1.446,3.144 c 37.715,-4.258 87.676,-21.894 109.465,-35.254 9.199,2.902 18.601,3.184 35.664,4.668 0,0 -2.524,-10.293 -21.125,-23.055 v 0 0 0 c 4.609,-12.355 -6.477,-80.753 -15.594,-98.898 v 0 0 0 c -0.41,28.613 -2.961,64.719 -13.559,80.391 z" /></clipPath><linearGradient
       id="linearGradient66"
       spreadMethod="pad"
       gradientTransform="matrix(-1.52e-5,348.155,348.155,1.52e-5,312.236,57.9)"
       gradientUnits="userSpaceOnUse"
       y2="0"
       x2="1"
       y1="0"
       x1="0"><stop
         id="stop62"
         offset="0"
         style="stop-opacity:1;stop-color:#33b880" /><stop
         id="stop64"
         offset="1"
         style="stop-opacity:1;stop-color:#00a770" /></linearGradient><clipPath
       id="clipPath76"
       clipPathUnits="userSpaceOnUse"><path
         id="path74"
         d="m 147.266,85.8789 1.425,3.1641 c -14.89,5.7812 -29.785,10.3437 -41.843,21.699 v 0 0 0 0 0 0 0 0 0 0 0 0 0 0 0 0 0 0 0 0 0 0 0 0 0 0 0 0 0 0 0 c 3.797,10.547 8.132,18.809 15.215,29.258 v 0 0 0 0 0 0 0 0 0 0 0 0 0 0 0 0 0 0 0 0 0 0 0 0 0 0 0 0 0 0 0 l 1.492,3.203 c -12.793,-1.926 -24.4027,-6.609 -35.4691,-8.769 v 0 0 0 0 0 0 0 0 0 0 0 0 0 0 0 0 0 0 0 0 0 0 0 0 0 0 0 0 0 0 0 c -8.7304,15.339 -12.1171,36.328 -16.5117,56.308 l -1.457,-3.183 v 0 0 0 0 0 0 0 0 0 0 0 0 0 0 0 c -2.4688,-22.793 -3.4649,-39.09 -0.207,-57.305 v 0 0 0 0 0 0 0 0 0 0 0 0 0 0 0 0 0 0 0 0 0 0 0 0 0 0 0 0 0 0 0 c -9.2149,-2.559 -17.3047,-2.918 -24.7344,-6.082 l -1.4141,-3.125 v 0 0 0 0 0 0 0 0 0 0 0 0 0 0 0 0 0 0 0 0 0 0 0 0 0 0 0 0 0 0 0 c 11.8242,-7.297 21.4531,-12.883 34.8321,-19.133 v 0 0 0 0 0 0 0 0 0 0 0 0 0 0 0 0 0 0 0 0 0 0 0 0 0 0 0 0 0 0 0 C 85.7422,86.543 93.1445,76.1797 105.129,64.3477 v 0 0 0 0 0 0 0 0 0 0 0 0 0 0 0 0 0 0 0 0 0 0 0 0 0 0 0 0 0 0 0 l 1.465,3.164 c -2.16,8.7383 -4.953,15.9571 -3.899,25.5039 v 0 0 0 0 0 0 0 0 0 0 0 0 0 0 0 0 0 0 0 0 0 0 0 0 0 0 0 0 0 0 0 c 14.864,-4.3359 27.625,-6.6211 44.571,-7.1367 z" /></clipPath><linearGradient
       id="linearGradient82"
       spreadMethod="pad"
       gradientTransform="matrix(-1.52e-5,348.26,348.26,1.52e-5,96.2256,57.9)"
       gradientUnits="userSpaceOnUse"
       y2="0"
       x2="1"
       y1="0"
       x1="0"><stop
         id="stop78"
         offset="0"
         style="stop-opacity:1;stop-color:#33b880" /><stop
         id="stop80"
         offset="1"
         style="stop-opacity:1;stop-color:#00a770" /></linearGradient><clipPath
       id="clipPath92"
       clipPathUnits="userSpaceOnUse"><path
         id="path90"
         d="m 188.621,313.656 c 0,0 -5.984,-10.625 -10.777,-24.726 h -1.145 v 0 0 c 34.922,-4.707 67.91,-18.848 76.192,-23.731 l -1.477,-3.125 v 0 0 0 0 0 0 0 c -36.25,6.367 -55.34,5.656 -68.848,4.446 v 0 0 0 c -13.464,-1.301 -16.218,-2.981 -16.218,-2.981 v 0 0 0 0 0 0 0 c -7.774,-16.992 -12.332,-44.766 -14.18,-54.992 l -1.453,-3.188 v 0 0 0 0 0 0 0 c -6.645,15.934 -16.195,47.762 -16.195,47.762 v 0 0 0 0 0 0 0 c -18.258,-9.797 -60.3794,-49.32 -60.3794,-49.32 v 0 0 0 0 0 0 0 c 23.2227,46.281 46.6794,67.433 46.6794,67.433 v 0 0 0 0 0 0 0 c -8.105,8.125 -29.2575,12.266 -44.7067,12.93 v 0 0 0 l 1.4258,3.125 c 9.707,2.852 29.6879,4.043 43.0859,4.66 v 0 0 0 0 0 0 0 c 15.852,0.477 25.43,-0.429 25.43,-0.429 v 0 0 0 c 14.101,11.238 35.168,21.093 42.566,22.136 z" /></clipPath><linearGradient
       id="linearGradient98"
       spreadMethod="pad"
       gradientTransform="matrix(-1.52e-5,348.016,348.016,1.52e-5,163.516,57.978)"
       gradientUnits="userSpaceOnUse"
       y2="0"
       x2="1"
       y1="0"
       x1="0"><stop
         id="stop94"
         offset="0"
         style="stop-opacity:1;stop-color:#33b880" /><stop
         id="stop96"
         offset="1"
         style="stop-opacity:1;stop-color:#00a770" /></linearGradient><clipPath
       id="clipPath108"
       clipPathUnits="userSpaceOnUse"><path
         id="path106"
         d="m 233.066,114.641 c -7.324,-9.934 -13.586,-17.7543 -21.66,-26.8363 v 0 0 0 0 0 0 0 0 0 0 0 0 0 0 0 0 0 0 0 0 0 0 0 0 0 0 0 0 0 0 0 c -11.933,-3.3125 -26.25,-1.8086 -37.273,-2.207 l -1.445,-3.168 v 0 0 0 0 0 0 0 0 0 0 0 0 0 0 0 0 0 0 0 0 0 0 0 0 0 0 0 0 0 0 0 c 8.296,-4.2656 16.421,-6.8828 25.117,-8.668 v 0 0 0 0 0 0 0 0 0 0 0 0 0 0 0 0 0 0 0 0 0 0 0 0 0 0 0 0 0 0 0 c -7.043,-6.4101 -16.457,-11.289 -23.059,-15.7539 l -1.465,-3.1172 v 0 0 0 0 0 0 0 0 0 0 0 0 0 0 0 0 0 0 0 0 0 0 0 0 0 0 0 0 0 0 0 c 14.168,3.3516 32.824,9.3672 46.719,17.5703 v 0 0 0 0 0 0 0 0 0 0 0 0 0 0 0 0 0 0 0 0 0 0 0 0 0 0 0 0 0 0 0 c 7.227,-0.3203 13.984,0.1563 18.945,1.1407 v 0 0 0 0 0 0 0 0 0 0 0 0 0 0 0 0 0 0 0 0 0 0 0 0 0 0 0 0 0 0 0 c 0,0 1.485,3.2343 1.485,3.1562 -0.91,3.2031 -3.75,5.1563 -4.59,9.6367 v 0 0 0 0 0 0 0 0 0 0 0 0 0 0 0 0 0 0 0 0 0 0 0 0 0 0 0 0 0 0 0 c 13.027,10.1094 22.461,19.3205 33.359,30.2775 v 0 0 0 0 0 0 0 0 0 0 0 0 0 0 0 0 0 0 0 0 0 0 0 0 0 0 0 0 0 0 0 l 1.504,3.172 C 259.941,112.422 246.887,102.219 234.297,96.25 v 0 0 0 0 0 0 0 0 0 0 0 0 0 0 0 0 0 0 0 0 0 0 0 0 0 0 0 0 0 0 0 c -0.52,6.18 -0.918,11.434 -1.231,18.391 z" /></clipPath><linearGradient
       id="linearGradient114"
       spreadMethod="pad"
       gradientTransform="matrix(-1.52e-5,348.151,348.151,1.52e-5,221.694,57.93)"
       gradientUnits="userSpaceOnUse"
       y2="0"
       x2="1"
       y1="0"
       x1="0"><stop
         id="stop110"
         offset="0"
         style="stop-opacity:1;stop-color:#33b880" /><stop
         id="stop112"
         offset="1"
         style="stop-opacity:1;stop-color:#00a770" /></linearGradient></defs><g
     transform="matrix(1.3333333,0,0,-1.3333333,0,60.466667)"
     id="g10"><g
       transform="scale(0.1)"
       id="g12"><g
         id="g14"><g
           clip-path="url(#clipPath20)"
           id="g16"><path
             id="path30"
             style="fill:url(#linearGradient28);fill-opacity:1;fill-rule:nonzero;stroke:none"
             d="M 453.547,0 H 0 V 453.535 H 453.547 V 0" /></g></g><g
         id="g32"><g
           clip-path="url(#clipPath38)"
           id="g34"><path
             id="path52"
             style="fill:url(#linearGradient50);fill-opacity:1;fill-rule:nonzero;stroke:none"
             d="m 439.531,224.137 c 0,-94.657 4.375,-191.5862 4.375,-191.5862 -0.168,-10.8711 -7.136,-17.8242 -15.91,-17.8242 H 35.4297 c -8.7891,0 -14.8633,7.8242 -15.8984,17.8242 0,0 -11.32817,82.7542 -11.32817,209.2222 0,126.426 11.32817,185.957 11.32817,185.957 1.3593,10.399 7.1093,17.833 15.8984,17.833 H 427.996 c 8.774,0 16.113,-8.145 15.91,-17.833 0,0 -4.375,-108.925 -4.375,-203.593" /></g></g><g
         id="g54"><g
           clip-path="url(#clipPath60)"
           id="g56"><path
             id="path68"
             style="fill:url(#linearGradient66);fill-opacity:1;fill-rule:nonzero;stroke:none"
             d="m 352.195,331.059 c -28.047,-16.426 -36.609,-17.743 -67.039,-36.016 l 1.485,3.379 c 15.964,17.422 22.922,24.766 33.418,40.156 -28.125,-1.523 -68.887,-4.883 -98.055,-11.308 v 0 0 0 l 1.543,3.125 c 26.453,12.871 75.562,25.656 100.601,28.964 -6.101,8.594 -55.867,35.508 -68.25,40.704 v 0 0 0 l 1.446,3.144 c 37.715,-4.258 87.676,-21.894 109.465,-35.254 9.199,2.902 18.601,3.184 35.664,4.668 0,0 -2.524,-10.293 -21.125,-23.055 v 0 0 0 c 4.609,-12.355 -6.477,-80.753 -15.594,-98.898 v 0 0 0 c -0.41,28.613 -2.961,64.719 -13.559,80.391" /></g></g><g
         id="g70"><g
           clip-path="url(#clipPath76)"
           id="g72"><path
             id="path84"
             style="fill:url(#linearGradient82);fill-opacity:1;fill-rule:nonzero;stroke:none"
             d="m 147.266,85.8789 1.425,3.1641 c -14.89,5.7812 -29.785,10.3437 -41.843,21.699 v 0 0 0 0 0 0 0 0 0 0 0 0 0 0 0 0 0 0 0 0 0 0 0 0 0 0 0 0 0 0 0 c 3.797,10.547 8.132,18.809 15.215,29.258 v 0 0 0 0 0 0 0 0 0 0 0 0 0 0 0 0 0 0 0 0 0 0 0 0 0 0 0 0 0 0 0 l 1.492,3.203 c -12.793,-1.926 -24.4027,-6.609 -35.4691,-8.769 v 0 0 0 0 0 0 0 0 0 0 0 0 0 0 0 0 0 0 0 0 0 0 0 0 0 0 0 0 0 0 0 c -8.7304,15.339 -12.1171,36.328 -16.5117,56.308 l -1.457,-3.183 v 0 0 0 0 0 0 0 0 0 0 0 0 0 0 0 c -2.4688,-22.793 -3.4649,-39.09 -0.207,-57.305 v 0 0 0 0 0 0 0 0 0 0 0 0 0 0 0 0 0 0 0 0 0 0 0 0 0 0 0 0 0 0 0 c -9.2149,-2.559 -17.3047,-2.918 -24.7344,-6.082 l -1.4141,-3.125 v 0 0 0 0 0 0 0 0 0 0 0 0 0 0 0 0 0 0 0 0 0 0 0 0 0 0 0 0 0 0 0 c 11.8242,-7.297 21.4531,-12.883 34.8321,-19.133 v 0 0 0 0 0 0 0 0 0 0 0 0 0 0 0 0 0 0 0 0 0 0 0 0 0 0 0 0 0 0 0 C 85.7422,86.543 93.1445,76.1797 105.129,64.3477 v 0 0 0 0 0 0 0 0 0 0 0 0 0 0 0 0 0 0 0 0 0 0 0 0 0 0 0 0 0 0 0 l 1.465,3.164 c -2.16,8.7383 -4.953,15.9571 -3.899,25.5039 v 0 0 0 0 0 0 0 0 0 0 0 0 0 0 0 0 0 0 0 0 0 0 0 0 0 0 0 0 0 0 0 c 14.864,-4.3359 27.625,-6.6211 44.571,-7.1367" /></g></g><g
         id="g86"><g
           clip-path="url(#clipPath92)"
           id="g88"><path
             id="path100"
             style="fill:url(#linearGradient98);fill-opacity:1;fill-rule:nonzero;stroke:none"
             d="m 188.621,313.656 c 0,0 -5.984,-10.625 -10.777,-24.726 h -1.145 v 0 0 c 34.922,-4.707 67.91,-18.848 76.192,-23.731 l -1.477,-3.125 v 0 0 0 0 0 0 0 c -36.25,6.367 -55.34,5.656 -68.848,4.446 v 0 0 0 c -13.464,-1.301 -16.218,-2.981 -16.218,-2.981 v 0 0 0 0 0 0 0 c -7.774,-16.992 -12.332,-44.766 -14.18,-54.992 l -1.453,-3.188 v 0 0 0 0 0 0 0 c -6.645,15.934 -16.195,47.762 -16.195,47.762 v 0 0 0 0 0 0 0 c -18.258,-9.797 -60.3794,-49.32 -60.3794,-49.32 v 0 0 0 0 0 0 0 c 23.2227,46.281 46.6794,67.433 46.6794,67.433 v 0 0 0 0 0 0 0 c -8.105,8.125 -29.2575,12.266 -44.7067,12.93 v 0 0 0 l 1.4258,3.125 c 9.707,2.852 29.6879,4.043 43.0859,4.66 v 0 0 0 0 0 0 0 c 15.852,0.477 25.43,-0.429 25.43,-0.429 v 0 0 0 c 14.101,11.238 35.168,21.093 42.566,22.136" /></g></g><g
         id="g102"><g
           clip-path="url(#clipPath108)"
           id="g104"><path
             id="path116"
             style="fill:url(#linearGradient114);fill-opacity:1;fill-rule:nonzero;stroke:none"
             d="m 233.066,114.641 c -7.324,-9.934 -13.586,-17.7543 -21.66,-26.8363 v 0 0 0 0 0 0 0 0 0 0 0 0 0 0 0 0 0 0 0 0 0 0 0 0 0 0 0 0 0 0 0 c -11.933,-3.3125 -26.25,-1.8086 -37.273,-2.207 l -1.445,-3.168 v 0 0 0 0 0 0 0 0 0 0 0 0 0 0 0 0 0 0 0 0 0 0 0 0 0 0 0 0 0 0 0 c 8.296,-4.2656 16.421,-6.8828 25.117,-8.668 v 0 0 0 0 0 0 0 0 0 0 0 0 0 0 0 0 0 0 0 0 0 0 0 0 0 0 0 0 0 0 0 c -7.043,-6.4101 -16.457,-11.289 -23.059,-15.7539 l -1.465,-3.1172 v 0 0 0 0 0 0 0 0 0 0 0 0 0 0 0 0 0 0 0 0 0 0 0 0 0 0 0 0 0 0 0 c 14.168,3.3516 32.824,9.3672 46.719,17.5703 v 0 0 0 0 0 0 0 0 0 0 0 0 0 0 0 0 0 0 0 0 0 0 0 0 0 0 0 0 0 0 0 c 7.227,-0.3203 13.984,0.1563 18.945,1.1407 v 0 0 0 0 0 0 0 0 0 0 0 0 0 0 0 0 0 0 0 0 0 0 0 0 0 0 0 0 0 0 0 c 0,0 1.485,3.2343 1.485,3.1562 -0.91,3.2031 -3.75,5.1563 -4.59,9.6367 v 0 0 0 0 0 0 0 0 0 0 0 0 0 0 0 0 0 0 0 0 0 0 0 0 0 0 0 0 0 0 0 c 13.027,10.1094 22.461,19.3205 33.359,30.2775 v 0 0 0 0 0 0 0 0 0 0 0 0 0 0 0 0 0 0 0 0 0 0 0 0 0 0 0 0 0 0 0 l 1.504,3.172 C 259.941,112.422 246.887,102.219 234.297,96.25 v 0 0 0 0 0 0 0 0 0 0 0 0 0 0 0 0 0 0 0 0 0 0 0 0 0 0 0 0 0 0 0 c -0.52,6.18 -0.918,11.434 -1.231,18.391" /></g></g><path
         id="path118"
         style="fill:#ffffff;fill-opacity:1;fill-rule:nonzero;stroke:none"
         d="m 353.645,334.254 c -27.993,-16.457 -36.567,-17.844 -67.004,-36.055 17.722,19.227 23.886,27.41 34.851,43.504 -28.054,-1.484 -68.836,-4.863 -97.945,-11.308 v 0 0 0 c 25.34,13.535 75.586,28.585 102.105,32.168 -6.148,8.488 -55.925,35.449 -68.308,40.644 v 0 0 0 c 39.402,-3.066 87.578,-17.793 110.926,-32.07 9.191,2.871 18.742,3.008 35.839,4.531 v 0 0 0 c -4.351,-7.48 -4.539,-11.805 -21.316,-22.93 v 0 0 0 c 4.648,-12.429 -6.453,-80.781 -15.625,-98.886 v 0 0 0 c -0.332,28.593 -2.832,64.707 -13.523,80.402" /><path
         id="path120"
         style="fill:#ffffff;fill-opacity:1;fill-rule:nonzero;stroke:none"
         d="m 148.691,89.043 c -16.086,5.9687 -27.668,12.91 -40.421,24.836 v 0 0 0 0 0 0 0 0 0 0 0 0 0 0 0 0 0 0 0 0 0 0 0 0 0 0 0 0 0 0 0 c 3.82,10.535 8.175,18.766 15.285,29.324 v 0 0 0 0 0 0 0 0 0 0 0 0 0 0 0 0 0 0 0 0 0 0 0 0 0 0 0 0 0 0 0 c -13.075,-1.953 -22.715,-3.43 -33.9847,-5.558 v 0 0 0 0 0 0 0 0 0 0 0 0 0 0 0 0 0 0 0 0 0 0 0 0 0 0 0 0 0 0 0 c -9.168,16.046 -13.332,31.535 -17.9961,53.097 v 0 0 0 0 0 0 0 0 0 0 0 0 0 0 0 c -2.5,-22.851 -3.4492,-39.172 -0.2265,-57.351 v 0 0 0 0 0 0 0 0 0 0 0 0 0 0 0 0 0 0 0 0 0 0 0 0 0 0 0 0 0 0 0 c -10.3399,-2.875 -17.668,-5.383 -26.1719,-9.219 v 0 0 0 0 0 0 0 0 0 0 0 0 0 0 0 0 0 0 0 0 0 0 0 0 0 0 0 0 0 0 0 c 11.9219,-7.297 21.5508,-12.91 34.8633,-19.121 v 0 0 0 0 0 0 0 0 0 0 0 0 0 0 0 0 0 0 0 0 0 0 0 0 0 0 0 0 0 0 0 C 87.1992,89.707 94.5898,79.3359 106.594,67.5117 v 0 0 0 0 0 0 0 0 0 0 0 0 0 0 0 0 0 0 0 0 0 0 0 0 0 0 0 0 0 0 0 c -2.817,10.0781 -3.559,18.086 -2.406,28.6602 v 0 0 0 0 0 0 0 0 0 0 0 0 0 0 0 0 0 0 0 0 0 0 0 0 0 0 0 0 0 0 0 c 14.875,-4.336 27.609,-6.6133 44.503,-7.1289" /><path
         id="path122"
         style="fill:#ffffff;fill-opacity:1;fill-rule:nonzero;stroke:none"
         d="m 190.566,316.371 v 0 0 0 0 c -5.007,-6.504 -10.82,-18.633 -12.39,-24.266 v 0 0 0 c 41.453,-5.617 74.715,-26.906 74.715,-26.906 v 0 0 0 0 0 0 0 c -36.25,6.426 -55.352,5.625 -68.875,4.414 v 0 0 0 c -13.442,-1.269 -16.203,-2.851 -16.203,-2.851 v 0 0 0 0 0 0 0 c -9.778,-21.426 -15.645,-58.215 -15.645,-58.215 v 0 0 0 0 0 0 0 c -6.594,15.902 -16.121,47.746 -16.121,47.746 v 0 0 0 0 0 0 0 C 117.754,246.508 75.6836,206.941 75.6836,206.941 v 0 0 0 0 0 0 0 c 23.125,46.325 46.6014,67.399 46.6014,67.399 v 0 0 0 0 0 0 0 c -8.074,8.183 -29.2577,12.265 -44.7459,12.949 v 0 0 0 c 8.039,3.281 28.6719,7.121 44.5239,7.852 v 0 0 0 0 0 0 0 c 15.867,0.449 25.464,-0.45 25.464,-0.45 v 0 0 0 c 14.153,11.172 35.637,20.586 43.039,21.68" /><path
         id="path124"
         style="fill:#ffffff;fill-opacity:1;fill-rule:nonzero;stroke:none"
         d="m 234.539,117.766 c -7.312,-9.934 -13.609,-17.727 -21.726,-26.7972 v 0 0 0 0 0 0 0 0 0 0 0 0 0 0 0 0 0 0 0 0 0 0 0 0 0 0 0 0 0 0 0 c -13.946,-3.918 -25.079,-5.3711 -38.68,-5.3711 v 0 0 0 0 0 0 0 0 0 0 0 0 0 0 0 0 0 0 0 0 0 0 0 0 0 0 0 0 0 0 0 c 8.347,-4.3086 16.433,-6.8868 25.144,-8.711 v 0 0 0 0 0 0 0 0 0 0 0 0 0 0 0 0 0 0 0 0 0 0 0 0 0 0 0 0 0 0 0 C 190.566,69.0039 183.203,63.3906 174.746,58.0078 v 0 0 0 0 0 0 0 0 0 0 0 0 0 0 0 0 0 0 0 0 0 0 0 0 0 0 0 0 0 0 0 c 14.18,3.3594 32.813,9.375 46.692,17.5781 v 0 0 0 0 0 0 0 0 0 0 0 0 0 0 0 0 0 0 0 0 0 0 0 0 0 0 0 0 0 0 0 c 7.246,-0.2812 14.023,0.1836 18.992,1.1719 v 0 0 0 0 0 0 0 0 0 0 0 0 0 0 0 0 0 0 0 0 0 0 0 0 0 0 0 0 0 0 0 c -1.297,4.1992 -2.09,7.336 -3.145,12.8008 v 0 0 0 0 0 0 0 0 0 0 0 0 0 0 0 0 0 0 0 0 0 0 0 0 0 0 0 0 0 0 0 c 13.067,10.1211 22.551,19.2814 33.418,30.2854 v 0 0 0 0 0 0 0 0 0 0 0 0 0 0 0 0 0 0 0 0 0 0 0 0 0 0 0 0 0 0 0 c -11.57,-8.078 -21.555,-14.102 -34.941,-20.4299 v 0 0 0 0 0 0 0 0 0 0 0 0 0 0 0 0 0 0 0 0 0 0 0 0 0 0 0 0 0 0 0 c -0.574,6.1719 -0.907,11.3949 -1.223,18.3519" /><path
         id="path126"
         style="fill:#231f20;fill-opacity:1;fill-rule:nonzero;stroke:none"
         d="m 728.512,308.762 v -25.793 c -23.516,2.519 -30.852,3.027 -57.91,3.535 -0.754,-21.492 -1.016,-49.57 -1.016,-61.965 0,-15.418 0,-68.277 2.781,-92.801 h -49.558 c 2.519,24.524 3.035,77.383 3.035,92.801 0,12.395 -0.762,40.473 -1.278,61.965 -26.796,-0.508 -34.132,-1.016 -57.648,-3.535 v 25.793 h 161.594" /><path
         id="path128"
         style="fill:#231f20;fill-opacity:1;fill-rule:nonzero;stroke:none"
         d="m 898.746,308.762 v -25.793 c -24.543,2.773 -49.074,2.273 -73.848,2.273 -6.582,0 -11.894,-0.254 -21.25,-0.515 -0.5,-16.68 -0.753,-36.661 -0.753,-50.567 l 64.738,1.516 v -26.809 l -64.992,1.516 c 0.254,-15.422 0.507,-37.688 1.269,-55.879 33.371,0.496 66.504,0.75 99.641,2.781 V 131.738 H 756.352 c 2.277,24.524 2.539,77.129 2.539,92.547 0,17.199 -1.016,63.985 -2.274,84.477 h 142.129" /><path
         id="path130"
         style="fill:#231f20;fill-opacity:1;fill-rule:nonzero;stroke:none"
         d="m 1000.43,289.031 c -5.817,0 -12.387,-0.508 -15.68,-1.015 -1.016,-23.512 -1.512,-36.161 -1.512,-63.477 0,-32.109 0,-45.516 1.258,-71.562 5.82,-0.254 15.176,-0.254 20.494,-0.254 34.14,0 51.08,9.867 51.08,29.601 0,23.262 -28.08,31.602 -49.32,31.602 h -9.859 l 9.859,25.039 h 6.07 c 14.42,0 34.91,6.562 34.91,24.277 0,18.711 -12.65,25.789 -47.3,25.789 z m 27.31,19.731 c 31.62,0 64.99,-11.633 64.99,-40.969 0,-17.703 -14.91,-33.391 -37.42,-39.199 30.6,-9.356 46.53,-25.801 46.53,-48.301 0,-35.918 -42.48,-48.555 -82.95,-48.555 h -82.195 c 2.274,23.262 2.793,56.641 2.793,92.801 0,24.277 -0.254,60.949 -2.531,84.223 h 90.783" /></g></g></svg>